# xmcd
#
# Track frame offsets:
#	150
#	12776
#	30558
#	48779
#	64692
#	81833
#	99674
#	125260
#	142632
#	162812
#	184785
#	201210
#	217137
#	237496
#	254893
#
# Disc length: 3669 seconds
#
# Revision: 1
# Processed by: cddbd v1.5PL3 Copyright (c) Steve Scherf et al.
# Submitted via: audiograbber 1.83.01
#
DISCID=cc0e530f
DTITLE=Ivailo Gurov - Bg baladi 1993-2003
DYEAR=2004
DGENRE=Pop
TTITLE0=Edna bylgarska roza
TTITLE1=Dobyr den
TTITLE2=Iskam da si moia
TTITLE3=Takyv 6te ostana
TTITLE4=Rai
TTITLE5=Hei priateli
TTITLE6=A ima nyakade lubov
TTITLE7=Posledna zora
TTITLE8=Prikazka za lubovta
TTITLE9=Kak ste u doma
TTITLE10=Edna lubovna drama
TTITLE11=Koleda
TTITLE12=Nyama pyt nazad
TTITLE13=Ti si vsi4ko za men
TTITLE14=Jiveia za teb
EXTD=
EXTT0=
EXTT1=
EXTT2=
EXTT3=
EXTT4=
EXTT5=
EXTT6=
EXTT7=
EXTT8=
EXTT9=
EXTT10=
EXTT11=
EXTT12=
EXTT13=
EXTT14=
PLAYORDER=
